<?xml version="1.0" encoding="utf-8"?>
<!-- Svg Vector Icons : http://www.onlinewebfonts.com/icon -->
<!DOCTYPE svg PUBLIC "-//W3C//DTD SVG 1.1//EN" "http://www.w3.org/Graphics/SVG/1.1/DTD/svg11.dtd">
<svg version="1.1" xmlns="http://www.w3.org/2000/svg" xmlns:xlink="http://www.w3.org/1999/xlink" x="0px" y="0px" viewBox="0 0 256 256" enable-background="new 0 0 256 256" xml:space="preserve">
<metadata> Svg Vector Icons : http://www.onlinewebfonts.com/icon </metadata>
<g><g><path fill="#000000" d="M72.9,128.5c0-6-4.2-9.6-11.5-9.6c-3,0-5,0.3-6.1,0.6v19.2c1.3,0.3,2.8,0.4,4.9,0.4C68,139.2,72.9,135.2,72.9,128.5z"/><path fill="#000000" d="M219.3,94.4h-5.7V67c0-0.2,0-0.3,0-0.5c0-1.1-0.4-2.1-1.1-3l-45.5-52c0,0,0,0,0,0c-0.3-0.3-0.6-0.6-0.9-0.8c-0.1-0.1-0.2-0.1-0.3-0.2c-0.3-0.2-0.6-0.3-0.9-0.4c-0.1,0-0.2,0-0.2-0.1c-0.3-0.1-0.7-0.1-1.1-0.1H51.6c-5.1,0-9.2,4.1-9.2,9.2v75.2h-5.7c-7.3,0-13.2,5.9-13.2,13.2v68.8c0,7.3,5.9,13.2,13.2,13.2h5.7v47.1c0,5.1,4.1,9.2,9.2,9.2h152.7c5.1,0,9.2-4.1,9.2-9.2v-47.1h5.7c7.3,0,13.2-5.9,13.2-13.2v-68.8C232.5,100.3,226.6,94.4,219.3,94.4z M51.6,19.2h107.2v47.4c0,2.6,2.1,4.6,4.6,4.6h40.9v23.2H51.6V19.2z M110.4,153.9v19.6H96.9v-65.2h17.2l13.5,23.9c3.9,6.9,7.7,15,10.6,22.4h0.3c-1-8.6-1.3-17.4-1.3-27.2v-19.1h13.6v65.2h-15.5l-13.9-25.1c-3.9-7-8.1-15.4-11.3-23l-0.3,0.1C110.2,134,110.4,143.2,110.4,153.9z M40.6,173.5v-64.3c4.6-0.8,10.9-1.3,19.9-1.3c9.1,0,15.6,1.7,19.9,5.2c4.2,3.3,7,8.7,7,15.1c0,6.4-2.1,11.8-6,15.5c-5,4.7-12.5,6.9-21.2,6.9c-1.9,0-3.7-0.1-5-0.3v23.3L40.6,173.5L40.6,173.5z M204.4,234.2H51.6v-44.6h152.7L204.4,234.2L204.4,234.2z M218.1,170.5c-4.6,1.5-13.2,3.7-21.8,3.7c-11.9,0-20.5-3-26.5-8.8c-6-5.6-9.3-14.1-9.2-23.7c0.1-21.7,15.9-34.1,37.2-34.1c8.4,0,14.9,1.6,18.1,3.2l-3.1,11.8c-3.6-1.5-8-2.8-15.2-2.8c-12.3,0-21.6,7-21.6,21.1c0,13.4,8.4,21.4,20.5,21.4c3.4,0,6.1-0.4,7.3-1v-13.6h-10.1v-11.6h24.3L218.1,170.5L218.1,170.5z"/></g></g>
</svg>